<mxfile host="app.diagrams.net" modified="2024-02-09T03:05:54.525Z" agent="Mozilla/5.0 (Windows NT 10.0; Win64; x64) AppleWebKit/537.36 (KHTML, like Gecko) Chrome/121.0.0.0 Safari/537.36" etag="nL3PhW42EzXBJVBhsA_I" version="23.1.2" type="device">
  <diagram name="Página-1" id="hyVqW1V0iI4zDTiHf05N">
    <mxGraphModel dx="1434" dy="738" grid="1" gridSize="10" guides="1" tooltips="1" connect="1" arrows="1" fold="1" page="1" pageScale="1" pageWidth="827" pageHeight="1169" math="0" shadow="0">
      <root>
        <mxCell id="0" />
        <mxCell id="1" parent="0" />
        <mxCell id="z5FNIsvP50M4G_LjBHTO-1" value="Tutor legal" style="shape=umlActor;verticalLabelPosition=bottom;verticalAlign=top;html=1;outlineConnect=0;" parent="1" vertex="1">
          <mxGeometry x="170" y="320" width="30" height="60" as="geometry" />
        </mxCell>
        <mxCell id="z5FNIsvP50M4G_LjBHTO-2" value="Ver notificaciones" style="ellipse;whiteSpace=wrap;html=1;" parent="1" vertex="1">
          <mxGeometry x="280" y="90" width="100" height="40" as="geometry" />
        </mxCell>
        <mxCell id="z5FNIsvP50M4G_LjBHTO-3" value="Responder a profesor" style="ellipse;whiteSpace=wrap;html=1;" parent="1" vertex="1">
          <mxGeometry x="294" y="200" width="120" height="40" as="geometry" />
        </mxCell>
        <mxCell id="z5FNIsvP50M4G_LjBHTO-4" value="Ver faltas de asistencia" style="ellipse;whiteSpace=wrap;html=1;" parent="1" vertex="1">
          <mxGeometry x="304" y="400" width="120" height="40" as="geometry" />
        </mxCell>
        <mxCell id="z5FNIsvP50M4G_LjBHTO-5" value="Solicitar tutoría" style="ellipse;whiteSpace=wrap;html=1;" parent="1" vertex="1">
          <mxGeometry x="314" y="320" width="100" height="40" as="geometry" />
        </mxCell>
        <mxCell id="z5FNIsvP50M4G_LjBHTO-7" value="Comprobar horario" style="ellipse;whiteSpace=wrap;html=1;" parent="1" vertex="1">
          <mxGeometry x="304" y="570" width="100" height="40" as="geometry" />
        </mxCell>
        <mxCell id="LBB_YN3q98yg1C6do47--1" value="" style="endArrow=none;html=1;rounded=0;entryX=0.5;entryY=1;entryDx=0;entryDy=0;exitX=0.5;exitY=0;exitDx=0;exitDy=0;exitPerimeter=0;" edge="1" parent="1" source="z5FNIsvP50M4G_LjBHTO-1" target="z5FNIsvP50M4G_LjBHTO-2">
          <mxGeometry width="50" height="50" relative="1" as="geometry">
            <mxPoint x="180" y="290" as="sourcePoint" />
            <mxPoint x="230" y="240" as="targetPoint" />
          </mxGeometry>
        </mxCell>
        <mxCell id="LBB_YN3q98yg1C6do47--2" value="" style="endArrow=none;html=1;rounded=0;entryX=0.5;entryY=1;entryDx=0;entryDy=0;exitX=0.5;exitY=0.5;exitDx=0;exitDy=0;exitPerimeter=0;" edge="1" parent="1" source="z5FNIsvP50M4G_LjBHTO-1" target="z5FNIsvP50M4G_LjBHTO-3">
          <mxGeometry width="50" height="50" relative="1" as="geometry">
            <mxPoint x="195" y="330" as="sourcePoint" />
            <mxPoint x="250" y="230" as="targetPoint" />
          </mxGeometry>
        </mxCell>
        <mxCell id="LBB_YN3q98yg1C6do47--3" value="" style="endArrow=none;html=1;rounded=0;entryX=0;entryY=0.5;entryDx=0;entryDy=0;exitX=0.5;exitY=0.5;exitDx=0;exitDy=0;exitPerimeter=0;" edge="1" parent="1" source="z5FNIsvP50M4G_LjBHTO-1" target="z5FNIsvP50M4G_LjBHTO-5">
          <mxGeometry width="50" height="50" relative="1" as="geometry">
            <mxPoint x="195" y="360" as="sourcePoint" />
            <mxPoint x="360" y="290" as="targetPoint" />
          </mxGeometry>
        </mxCell>
        <mxCell id="LBB_YN3q98yg1C6do47--4" value="" style="endArrow=none;html=1;rounded=0;entryX=0;entryY=0.5;entryDx=0;entryDy=0;exitX=0.5;exitY=0.5;exitDx=0;exitDy=0;exitPerimeter=0;" edge="1" parent="1" source="z5FNIsvP50M4G_LjBHTO-1" target="z5FNIsvP50M4G_LjBHTO-4">
          <mxGeometry width="50" height="50" relative="1" as="geometry">
            <mxPoint x="195" y="360" as="sourcePoint" />
            <mxPoint x="390" y="340" as="targetPoint" />
          </mxGeometry>
        </mxCell>
        <mxCell id="LBB_YN3q98yg1C6do47--5" value="" style="endArrow=none;html=1;rounded=0;entryX=0.5;entryY=0;entryDx=0;entryDy=0;exitX=0.5;exitY=0.5;exitDx=0;exitDy=0;exitPerimeter=0;" edge="1" parent="1" source="z5FNIsvP50M4G_LjBHTO-1" target="z5FNIsvP50M4G_LjBHTO-7">
          <mxGeometry width="50" height="50" relative="1" as="geometry">
            <mxPoint x="195" y="360" as="sourcePoint" />
            <mxPoint x="270" y="420" as="targetPoint" />
          </mxGeometry>
        </mxCell>
        <mxCell id="LBB_YN3q98yg1C6do47--6" value="iniciar sesion" style="ellipse;whiteSpace=wrap;html=1;" vertex="1" parent="1">
          <mxGeometry x="670" y="290" width="80" height="40" as="geometry" />
        </mxCell>
        <mxCell id="LBB_YN3q98yg1C6do47--7" value="" style="endArrow=none;dashed=1;html=1;dashPattern=1 3;strokeWidth=2;rounded=0;entryX=0;entryY=0.5;entryDx=0;entryDy=0;exitX=1;exitY=0.5;exitDx=0;exitDy=0;" edge="1" parent="1" source="z5FNIsvP50M4G_LjBHTO-2" target="LBB_YN3q98yg1C6do47--6">
          <mxGeometry width="50" height="50" relative="1" as="geometry">
            <mxPoint x="450" y="220" as="sourcePoint" />
            <mxPoint x="500" y="170" as="targetPoint" />
          </mxGeometry>
        </mxCell>
        <mxCell id="LBB_YN3q98yg1C6do47--8" value="" style="endArrow=none;dashed=1;html=1;dashPattern=1 3;strokeWidth=2;rounded=0;entryX=0;entryY=0.5;entryDx=0;entryDy=0;exitX=1;exitY=0.5;exitDx=0;exitDy=0;" edge="1" parent="1" source="z5FNIsvP50M4G_LjBHTO-3" target="LBB_YN3q98yg1C6do47--6">
          <mxGeometry width="50" height="50" relative="1" as="geometry">
            <mxPoint x="390" y="120" as="sourcePoint" />
            <mxPoint x="660" y="320" as="targetPoint" />
          </mxGeometry>
        </mxCell>
        <mxCell id="LBB_YN3q98yg1C6do47--9" value="" style="endArrow=none;dashed=1;html=1;dashPattern=1 3;strokeWidth=2;rounded=0;entryX=0;entryY=0.5;entryDx=0;entryDy=0;exitX=1;exitY=0.5;exitDx=0;exitDy=0;" edge="1" parent="1" source="z5FNIsvP50M4G_LjBHTO-5" target="LBB_YN3q98yg1C6do47--6">
          <mxGeometry width="50" height="50" relative="1" as="geometry">
            <mxPoint x="424" y="250" as="sourcePoint" />
            <mxPoint x="660" y="320" as="targetPoint" />
          </mxGeometry>
        </mxCell>
        <mxCell id="LBB_YN3q98yg1C6do47--10" value="" style="endArrow=none;dashed=1;html=1;dashPattern=1 3;strokeWidth=2;rounded=0;entryX=0;entryY=0.5;entryDx=0;entryDy=0;exitX=1;exitY=0.5;exitDx=0;exitDy=0;" edge="1" parent="1" source="z5FNIsvP50M4G_LjBHTO-4" target="LBB_YN3q98yg1C6do47--6">
          <mxGeometry width="50" height="50" relative="1" as="geometry">
            <mxPoint x="440" y="350" as="sourcePoint" />
            <mxPoint x="660" y="320" as="targetPoint" />
          </mxGeometry>
        </mxCell>
        <mxCell id="LBB_YN3q98yg1C6do47--11" value="" style="endArrow=none;dashed=1;html=1;dashPattern=1 3;strokeWidth=2;rounded=0;entryX=0;entryY=0.5;entryDx=0;entryDy=0;exitX=1;exitY=0.5;exitDx=0;exitDy=0;" edge="1" parent="1" source="z5FNIsvP50M4G_LjBHTO-7" target="LBB_YN3q98yg1C6do47--6">
          <mxGeometry width="50" height="50" relative="1" as="geometry">
            <mxPoint x="424" y="460" as="sourcePoint" />
            <mxPoint x="660" y="320" as="targetPoint" />
          </mxGeometry>
        </mxCell>
        <mxCell id="LBB_YN3q98yg1C6do47--12" value="include" style="text;html=1;strokeColor=none;fillColor=none;align=center;verticalAlign=middle;whiteSpace=wrap;rounded=0;" vertex="1" parent="1">
          <mxGeometry x="400" y="370" width="60" height="30" as="geometry" />
        </mxCell>
        <mxCell id="LBB_YN3q98yg1C6do47--13" value="include" style="text;html=1;strokeColor=none;fillColor=none;align=center;verticalAlign=middle;whiteSpace=wrap;rounded=0;" vertex="1" parent="1">
          <mxGeometry x="414" y="295" width="60" height="30" as="geometry" />
        </mxCell>
        <mxCell id="LBB_YN3q98yg1C6do47--14" value="include" style="text;html=1;strokeColor=none;fillColor=none;align=center;verticalAlign=middle;whiteSpace=wrap;rounded=0;" vertex="1" parent="1">
          <mxGeometry x="414" y="230" width="60" height="30" as="geometry" />
        </mxCell>
        <mxCell id="LBB_YN3q98yg1C6do47--15" value="include" style="text;html=1;strokeColor=none;fillColor=none;align=center;verticalAlign=middle;whiteSpace=wrap;rounded=0;" vertex="1" parent="1">
          <mxGeometry x="424" y="110" width="60" height="30" as="geometry" />
        </mxCell>
        <mxCell id="LBB_YN3q98yg1C6do47--16" value="include" style="text;html=1;strokeColor=none;fillColor=none;align=center;verticalAlign=middle;whiteSpace=wrap;rounded=0;" vertex="1" parent="1">
          <mxGeometry x="434" y="555" width="60" height="30" as="geometry" />
        </mxCell>
      </root>
    </mxGraphModel>
  </diagram>
</mxfile>
